<svg width="122.88" height="90.78" xmlns="http://www.w3.org/2000/svg">
 <style type="text/css">.st0{fill-rule:evenodd;clip-rule:evenodd;}</style>

 <g>
  <title>background</title>
  <rect fill="none" id="canvas_background" height="514" width="514" y="-1" x="-1"/>
 </g>
 <g>
  <title>Layer 1</title>
  <g fill="none" id="svg_1">
   <path fill="#426373" id="svg_2" d="m46.86,0.05l43.63,0l9.94,17.7l20.48,0c1.09,0 1.98,0.92 1.98,1.98l0,69.08c0,1.06 -0.91,1.98 -1.98,1.98l-118.93,0c-1.06,-0.01 -1.98,-0.9 -1.98,-1.98l0,-69.08c0,-1.09 0.89,-1.98 1.98,-1.98l9.21,0l0,-6.35l11.38,0l0,6.35l12.36,0c2.57,-5.08 5.14,-10.15 7.71,-15.23c1.56,-3.09 0.7,-2.47 4.22,-2.47l0,0zm63.21,26.45c3.26,0 5.9,2.64 5.9,5.9c0,3.26 -2.64,5.9 -5.9,5.9c-3.26,0 -5.9,-2.64 -5.9,-5.9c0.01,-3.26 2.65,-5.9 5.9,-5.9l0,0l0,0zm-43.43,6.87c9.87,0 17.88,8.01 17.88,17.88c0,9.87 -8.01,17.88 -17.88,17.88c-9.87,0 -17.88,-8.01 -17.88,-17.88c0,-9.87 8.01,-17.88 17.88,-17.88l0,0zm0,-11.64c16.31,0 29.53,13.22 29.53,29.53c0,16.3 -13.22,29.53 -29.53,29.53c-16.3,0 -29.53,-13.23 -29.53,-29.53c0.01,-16.31 13.23,-29.53 29.53,-29.53l0,0z" class="st0"/>
  </g>
  <rect id="svg_3" height="3" width="6" y="17.84314" x="-126.559998" stroke-width="0.001" stroke="#FF0000" fill="#CFCA6D"/>
 </g>
</svg>