<svg width="122.879" height="122.879" xmlns="http://www.w3.org/2000/svg">

 <g>
  <title>background</title>
  <rect fill="none" id="canvas_background" height="514" width="514" y="-1" x="-1"/>
 </g>
 <g>
  <title>Layer 1</title>
  <g id="svg_1">
   <path fill="#256ddd" id="svg_2" d="m104.885,17.995c23.993,23.994 23.993,62.896 0,86.89c-23.994,23.993 -62.896,23.993 -86.89,0c-23.993,-23.994 -23.993,-62.896 0,-86.89c23.994,-23.993 62.896,-23.993 86.89,0l0,0zm-11.278,39.954c1.928,0 3.49,1.563 3.49,3.49c0,1.928 -1.563,3.49 -3.49,3.49c-21.445,0 -42.891,0 -64.335,0c-1.928,0 -3.491,-1.563 -3.491,-3.49c0,-1.927 1.563,-3.49 3.491,-3.49c21.445,0 42.89,0 64.335,0l0,0z" clip-rule="evenodd" fill-rule="evenodd"/>
  </g>
 </g>
</svg>